<svg xmlns="http://www.w3.org/2000/svg" xmlns:xlink="http://www.w3.org/1999/xlink" zoomAndPan="magnify" preserveAspectRatio="xMidYMid meet" version="1.0" viewBox="41.92 148.93 307.37 76.23"><defs><g/></defs><path fill="#8bcad9" d="M 145.203125 175.679688 C 140.925781 173.914062 136.359375 173.179688 132.582031 172.902344 C 132.28125 172.386719 131.984375 171.875 131.675781 171.367188 C 130.871094 170.011719 130.105469 168.734375 129.480469 167.429688 C 123.292969 154.507812 113.9375 149.023438 100.921875 150.695312 C 99.160156 150.917969 97.09375 150.460938 94.90625 149.972656 C 93.429688 149.644531 91.90625 149.304688 90.324219 149.132812 C 80.3125 148.070312 73.332031 151.117188 68.957031 158.441406 C 66.902344 161.882812 64.636719 165.320312 62.445312 168.640625 C 61.445312 170.15625 60.441406 171.675781 59.457031 173.195312 C 59.441406 173.222656 59.441406 173.257812 59.421875 173.28125 C 55.085938 174.109375 50.738281 176.195312 47.886719 178.960938 C 43.308594 183.40625 41.304688 188.628906 42.089844 194.0625 C 43.09375 201.046875 48.652344 207.539062 57.71875 212.394531 C 57.71875 212.398438 57.722656 212.402344 57.726562 212.410156 C 60.976562 218.109375 64.984375 225.152344 74.199219 225.152344 C 74.578125 225.152344 74.960938 225.140625 75.355469 225.117188 C 82.128906 224.703125 86.71875 220.84375 89.066406 213.726562 L 108.640625 212.972656 C 108.734375 213.167969 108.828125 213.347656 108.921875 213.546875 C 109.75 215.304688 110.679688 217.289062 112.285156 218.902344 C 115.527344 222.164062 119.203125 223.859375 122.984375 223.859375 C 123.355469 223.859375 123.730469 223.84375 124.101562 223.808594 C 129.449219 223.335938 134.601562 219.613281 139.421875 212.777344 C 146.210938 211.972656 153.714844 209.441406 155.128906 198.882812 C 156.691406 187.21875 153.167969 178.976562 145.203125 175.679688 Z M 74.324219 161.648438 C 77.445312 156.425781 82.03125 154.550781 89.660156 155.351562 C 90.890625 155.480469 92.179688 155.769531 93.546875 156.070312 C 96.164062 156.660156 98.882812 157.261719 101.714844 156.898438 C 111.992188 155.585938 118.828125 159.664062 123.84375 170.132812 C 124.273438 171.027344 124.742188 171.882812 125.21875 172.714844 C 107.550781 172.511719 87.394531 172.398438 67.1875 172.796875 C 67.34375 172.558594 67.5 172.320312 67.65625 172.082031 C 69.890625 168.703125 72.195312 165.210938 74.324219 161.648438 Z M 74.972656 218.878906 C 69.542969 219.226562 67.03125 215.988281 63.800781 210.429688 C 67.5625 201.566406 71.027344 201.820312 75.121094 203.113281 C 79.714844 204.554688 82.277344 207.023438 83.390625 211.089844 C 81.886719 216.273438 79.351562 218.609375 74.972656 218.878906 Z M 123.550781 217.585938 C 121.238281 217.789062 118.953125 216.746094 116.714844 214.496094 C 115.875 213.652344 115.21875 212.25 114.582031 210.898438 C 114.46875 210.648438 114.351562 210.402344 114.234375 210.164062 C 116.941406 204.945312 121.136719 202.648438 128.1875 202.480469 L 133.585938 210.210938 C 130.160156 214.761719 126.710938 217.304688 123.550781 217.585938 Z M 148.9375 198.050781 C 148.203125 203.523438 145.535156 205.734375 138.65625 206.558594 L 132.375 197.558594 C 131.800781 196.742188 130.875 196.246094 129.871094 196.226562 C 119.777344 196.0625 113.105469 199.414062 109.050781 206.707031 L 88.765625 207.488281 C 86.796875 202.414062 82.925781 199.019531 76.992188 197.148438 C 67.148438 194.054688 62.113281 199.523438 58.984375 205.925781 C 52.800781 202.234375 48.917969 197.667969 48.269531 193.171875 C 47.777344 189.753906 49.113281 186.480469 52.234375 183.445312 C 54.71875 181.035156 59.257812 179.21875 63.027344 179.132812 C 86.113281 178.589844 109.4375 178.769531 129.214844 179.011719 C 134.390625 179.078125 139.09375 179.921875 142.8125 181.457031 C 149.34375 184.164062 149.75 191.976562 148.9375 198.050781 Z M 148.9375 198.050781 " fill-opacity="1" fill-rule="nonzero"/><g fill="#000000" fill-opacity="1"><g transform="translate(168.921879, 191.499979)"><g><path d="M 7.015625 0.5 C 6.742188 0.101562 6.609375 -0.347656 6.609375 -0.859375 L 6.609375 -0.9375 C 6.671875 -1.78125 6.972656 -2.351562 7.515625 -2.65625 C 7.847656 -2.832031 8.296875 -2.921875 8.859375 -2.921875 C 9.492188 -2.921875 9.914062 -3 10.125 -3.15625 C 10.25 -3.238281 10.332031 -3.328125 10.375 -3.421875 C 10.414062 -3.515625 10.453125 -3.601562 10.484375 -3.6875 C 10.515625 -3.78125 10.535156 -3.882812 10.546875 -4 C 10.566406 -4.125 10.582031 -4.253906 10.59375 -4.390625 C 10.613281 -4.523438 10.628906 -4.664062 10.640625 -4.8125 C 10.660156 -4.96875 10.671875 -5.117188 10.671875 -5.265625 L 10.671875 -10.84375 C 10.546875 -11.414062 9.835938 -13.003906 8.546875 -15.609375 C 7.078125 -18.609375 5.878906 -20.953125 4.953125 -22.640625 C 4.441406 -23.566406 3.894531 -24.242188 3.3125 -24.671875 C 2.726562 -25.109375 1.984375 -25.40625 1.078125 -25.5625 L 1.078125 -25.609375 L 1.03125 -25.609375 C 1 -25.609375 0.960938 -25.613281 0.921875 -25.625 C 0.878906 -25.644531 0.828125 -25.65625 0.765625 -25.65625 C 0.703125 -25.65625 0.628906 -25.664062 0.546875 -25.6875 C -0.0234375 -25.8125 -0.429688 -26.082031 -0.671875 -26.5 C -0.796875 -26.707031 -0.867188 -26.898438 -0.890625 -27.078125 C -0.921875 -27.265625 -0.9375 -27.476562 -0.9375 -27.71875 C -0.9375 -28.5 -0.671875 -29.054688 -0.140625 -29.390625 C 0.253906 -29.628906 0.765625 -29.75 1.390625 -29.75 C 3.972656 -29.75 6.015625 -29.390625 7.515625 -28.671875 C 9.078125 -27.921875 10.441406 -26.523438 11.609375 -24.484375 L 11.609375 -24.4375 C 12.117188 -23.445312 12.820312 -22.019531 13.71875 -20.15625 C 13.957031 -19.738281 14.175781 -19.328125 14.375 -18.921875 C 14.570312 -18.515625 14.757812 -18.140625 14.9375 -17.796875 C 15.113281 -17.453125 15.265625 -17.144531 15.390625 -16.875 L 16.875 -19.75 L 19.4375 -24.890625 C 19.53125 -25.097656 19.609375 -25.273438 19.671875 -25.421875 C 19.367188 -25.453125 18.976562 -25.46875 18.5 -25.46875 L 18.21875 -25.46875 C 17.65625 -25.46875 17.207031 -25.617188 16.875 -25.921875 C 16.695312 -26.066406 16.554688 -26.25 16.453125 -26.46875 C 16.347656 -26.695312 16.296875 -26.847656 16.296875 -26.921875 C 16.296875 -27.003906 16.28125 -27.179688 16.25 -27.453125 L 16.25 -27.546875 C 16.25 -27.628906 16.25 -27.707031 16.25 -27.78125 C 16.25 -27.863281 16.253906 -27.941406 16.265625 -28.015625 C 16.285156 -28.085938 16.304688 -28.160156 16.328125 -28.234375 C 16.359375 -28.304688 16.390625 -28.378906 16.421875 -28.453125 C 16.453125 -28.535156 16.484375 -28.613281 16.515625 -28.6875 C 16.546875 -28.757812 16.59375 -28.828125 16.65625 -28.890625 C 16.738281 -29.003906 16.832031 -29.109375 16.9375 -29.203125 C 17.039062 -29.296875 17.160156 -29.378906 17.296875 -29.453125 C 17.429688 -29.523438 17.566406 -29.578125 17.703125 -29.609375 C 17.835938 -29.640625 17.984375 -29.65625 18.140625 -29.65625 L 18.1875 -29.65625 C 19.144531 -29.59375 20.023438 -29.550781 20.828125 -29.53125 C 21.640625 -29.519531 22.378906 -29.515625 23.046875 -29.515625 C 23.578125 -29.515625 24.21875 -29.519531 24.96875 -29.53125 C 25.71875 -29.550781 26.578125 -29.59375 27.546875 -29.65625 L 27.578125 -29.65625 C 28.242188 -29.65625 28.753906 -29.398438 29.109375 -28.890625 C 29.378906 -28.503906 29.515625 -28.054688 29.515625 -27.546875 L 29.515625 -27.453125 C 29.460938 -26.734375 29.253906 -26.222656 28.890625 -25.921875 C 28.554688 -25.617188 28.109375 -25.46875 27.546875 -25.46875 C 27.003906 -25.46875 26.535156 -25.421875 26.140625 -25.328125 C 25.753906 -25.242188 25.425781 -25.117188 25.15625 -24.953125 C 24.882812 -24.785156 24.613281 -24.535156 24.34375 -24.203125 C 24.070312 -23.878906 23.800781 -23.476562 23.53125 -23 L 20.75 -17.78125 L 18.453125 -13.453125 C 18.421875 -13.335938 18.359375 -13.195312 18.265625 -13.03125 C 18.179688 -12.863281 18.0625 -12.644531 17.90625 -12.375 C 17.84375 -12.195312 17.78125 -12.03125 17.71875 -11.875 C 17.664062 -11.726562 17.613281 -11.59375 17.5625 -11.46875 C 17.519531 -11.351562 17.5 -11.234375 17.5 -11.109375 C 17.445312 -10.898438 17.410156 -10.675781 17.390625 -10.4375 C 17.378906 -10.195312 17.375 -9.925781 17.375 -9.625 L 17.375 -5.265625 C 17.40625 -4.898438 17.425781 -4.585938 17.4375 -4.328125 C 17.445312 -4.078125 17.484375 -3.863281 17.546875 -3.6875 C 17.578125 -3.601562 17.613281 -3.515625 17.65625 -3.421875 C 17.707031 -3.328125 17.789062 -3.238281 17.90625 -3.15625 C 18.113281 -3 18.535156 -2.921875 19.171875 -2.921875 L 19.4375 -2.921875 C 20.007812 -2.921875 20.460938 -2.769531 20.796875 -2.46875 C 21.148438 -2.175781 21.359375 -1.664062 21.421875 -0.9375 L 21.421875 -0.859375 C 21.421875 -0.347656 21.285156 0.101562 21.015625 0.5 C 20.867188 0.738281 20.660156 0.925781 20.390625 1.0625 C 20.117188 1.195312 19.832031 1.265625 19.53125 1.265625 L 19.484375 1.265625 C 18.859375 1.234375 18.234375 1.207031 17.609375 1.1875 C 16.992188 1.175781 16.394531 1.160156 15.8125 1.140625 C 15.226562 1.128906 14.664062 1.125 14.125 1.125 C 12.382812 1.125 10.539062 1.171875 8.59375 1.265625 L 8.546875 1.265625 C 7.890625 1.265625 7.378906 1.007812 7.015625 0.5 Z M 7.015625 0.5 "/></g></g></g><g fill="#000000" fill-opacity="1"><g transform="translate(198.171852, 191.499979)"><g><path d="M -1.265625 0.5 C -1.535156 0.101562 -1.671875 -0.347656 -1.671875 -0.859375 L -1.671875 -0.9375 C -1.671875 -0.9375 -1.671875 -0.96875 -1.671875 -1.03125 C -1.609375 -1.8125 -1.335938 -2.335938 -0.859375 -2.609375 C -0.523438 -2.816406 -0.148438 -2.921875 0.265625 -2.921875 L 0.671875 -2.921875 C 1.242188 -2.921875 1.617188 -3.023438 1.796875 -3.234375 C 2.160156 -3.628906 2.445312 -4.050781 2.65625 -4.5 C 2.6875 -4.625 2.722656 -4.726562 2.765625 -4.8125 C 2.804688 -4.90625 2.84375 -4.988281 2.875 -5.0625 C 2.90625 -5.132812 2.9375 -5.203125 2.96875 -5.265625 C 3 -5.328125 3.019531 -5.382812 3.03125 -5.4375 C 3.050781 -5.5 3.078125 -5.550781 3.109375 -5.59375 C 3.140625 -5.644531 3.15625 -5.6875 3.15625 -5.71875 L 4.234375 -8.28125 L 11.03125 -24.34375 C 11.144531 -24.644531 11.203125 -24.851562 11.203125 -24.96875 L 11.15625 -25.15625 C 10.832031 -25.332031 10.351562 -25.484375 9.71875 -25.609375 C 9.0625 -25.722656 8.597656 -25.882812 8.328125 -26.09375 C 7.898438 -26.425781 7.6875 -26.984375 7.6875 -27.765625 C 7.6875 -28.546875 7.957031 -29.101562 8.5 -29.4375 C 8.894531 -29.675781 9.40625 -29.796875 10.03125 -29.796875 C 10.570312 -29.796875 11.066406 -29.78125 11.515625 -29.75 C 11.960938 -29.71875 12.378906 -29.675781 12.765625 -29.625 C 13.160156 -29.582031 13.539062 -29.519531 13.90625 -29.4375 C 14.988281 -29.132812 15.929688 -28.578125 16.734375 -27.765625 C 17.484375 -26.984375 18.175781 -25.828125 18.8125 -24.296875 L 26.375 -5.671875 C 26.789062 -4.617188 27.179688 -3.851562 27.546875 -3.375 C 27.660156 -3.226562 27.789062 -3.113281 27.9375 -3.03125 C 28.09375 -2.957031 28.289062 -2.921875 28.53125 -2.921875 L 28.796875 -2.921875 C 29.367188 -2.921875 29.820312 -2.769531 30.15625 -2.46875 C 30.207031 -2.445312 30.265625 -2.40625 30.328125 -2.34375 C 30.390625 -2.28125 30.4375 -2.222656 30.46875 -2.171875 C 30.5 -2.128906 30.523438 -2.078125 30.546875 -2.015625 C 30.578125 -1.960938 30.597656 -1.910156 30.609375 -1.859375 C 30.628906 -1.816406 30.644531 -1.757812 30.65625 -1.6875 C 30.675781 -1.613281 30.691406 -1.5625 30.703125 -1.53125 C 30.722656 -1.5 30.734375 -1.445312 30.734375 -1.375 C 30.734375 -1.300781 30.738281 -1.25 30.75 -1.21875 C 30.769531 -1.1875 30.78125 -1.140625 30.78125 -1.078125 C 30.78125 -1.015625 30.78125 -0.96875 30.78125 -0.9375 L 30.78125 -0.859375 C 30.78125 -0.347656 30.644531 0.101562 30.375 0.5 C 30.25 0.644531 30.101562 0.773438 29.9375 0.890625 C 29.78125 1.015625 29.601562 1.109375 29.40625 1.171875 C 29.207031 1.234375 29.019531 1.265625 28.84375 1.265625 L 28.796875 1.265625 C 26.878906 1.171875 25.242188 1.125 23.890625 1.125 C 22.117188 1.125 20.273438 1.171875 18.359375 1.265625 L 18.3125 1.265625 C 18.132812 1.265625 17.945312 1.234375 17.75 1.171875 C 17.550781 1.109375 17.367188 1.015625 17.203125 0.890625 C 17.046875 0.773438 16.90625 0.644531 16.78125 0.5 C 16.632812 0.289062 16.53125 0.0703125 16.46875 -0.15625 C 16.40625 -0.382812 16.375 -0.617188 16.375 -0.859375 L 16.375 -0.9375 C 16.4375 -1.664062 16.648438 -2.175781 17.015625 -2.46875 C 17.335938 -2.769531 17.785156 -2.921875 18.359375 -2.921875 C 19.171875 -2.921875 19.726562 -2.984375 20.03125 -3.109375 C 20.03125 -3.140625 20.03125 -3.15625 20.03125 -3.15625 C 20.03125 -3.175781 20.015625 -3.257812 19.984375 -3.40625 C 19.953125 -3.5625 19.894531 -3.773438 19.8125 -4.046875 C 19.738281 -4.316406 19.660156 -4.585938 19.578125 -4.859375 L 18.3125 -7.875 L 8.734375 -7.875 C 8.429688 -7.15625 8.207031 -6.585938 8.0625 -6.171875 C 7.875 -5.773438 7.765625 -5.519531 7.734375 -5.40625 C 7.703125 -5.34375 7.675781 -5.25 7.65625 -5.125 C 7.65625 -5.070312 7.644531 -5.03125 7.625 -5 C 7.613281 -4.96875 7.609375 -4.9375 7.609375 -4.90625 C 7.453125 -4.488281 7.328125 -4.101562 7.234375 -3.75 C 7.148438 -3.40625 7.109375 -3.191406 7.109375 -3.109375 C 7.492188 -2.984375 8.195312 -2.921875 9.21875 -2.921875 L 9.5 -2.921875 C 10.0625 -2.921875 10.507812 -2.769531 10.84375 -2.46875 C 11.207031 -2.175781 11.414062 -1.664062 11.46875 -0.9375 L 11.46875 -0.859375 C 11.46875 -0.347656 11.332031 0.101562 11.0625 0.5 C 10.882812 0.738281 10.660156 0.925781 10.390625 1.0625 C 10.117188 1.195312 9.835938 1.265625 9.546875 1.265625 L 9.5 1.265625 C 8.539062 1.203125 7.65625 1.160156 6.84375 1.140625 C 6.03125 1.128906 5.296875 1.125 4.640625 1.125 C 3.703125 1.125 2.257812 1.171875 0.3125 1.265625 L 0.265625 1.265625 C -0.390625 1.265625 -0.898438 1.007812 -1.265625 0.5 Z M 10.484375 -12.0625 L 16.609375 -12.0625 L 13.640625 -19.671875 Z M 10.484375 -12.0625 "/></g></g></g><g fill="#73b2d9" fill-opacity="1"><g transform="translate(228.851563, 191.499979)"><g><path d="M 6.53125 0.5 C 6.257812 0.101562 6.125 -0.347656 6.125 -0.859375 L 6.125 -0.9375 C 6.125 -0.9375 6.125 -0.984375 6.125 -1.078125 C 6.125 -1.171875 6.128906 -1.222656 6.140625 -1.234375 C 6.160156 -1.253906 6.171875 -1.304688 6.171875 -1.390625 C 6.171875 -1.484375 6.175781 -1.550781 6.1875 -1.59375 C 6.195312 -1.644531 6.207031 -1.707031 6.21875 -1.78125 C 6.238281 -1.851562 6.265625 -1.910156 6.296875 -1.953125 C 6.328125 -2.003906 6.363281 -2.066406 6.40625 -2.140625 C 6.457031 -2.210938 6.503906 -2.269531 6.546875 -2.3125 C 6.585938 -2.363281 6.644531 -2.414062 6.71875 -2.46875 C 6.800781 -2.53125 6.875 -2.578125 6.9375 -2.609375 C 7.257812 -2.816406 7.738281 -2.921875 8.375 -2.921875 C 9 -2.921875 9.414062 -3 9.625 -3.15625 C 9.75 -3.238281 9.832031 -3.328125 9.875 -3.421875 C 9.914062 -3.515625 9.953125 -3.601562 9.984375 -3.6875 C 10.015625 -3.8125 10.046875 -3.953125 10.078125 -4.109375 C 10.109375 -4.273438 10.128906 -4.457031 10.140625 -4.65625 C 10.160156 -4.851562 10.171875 -5.054688 10.171875 -5.265625 L 10.171875 -25.609375 L 8.1875 -25.609375 C 7.914062 -25.609375 7.660156 -25.582031 7.421875 -25.53125 C 7.179688 -25.488281 6.992188 -25.4375 6.859375 -25.375 C 6.722656 -25.320312 6.597656 -25.25 6.484375 -25.15625 C 6.117188 -24.882812 5.832031 -24.460938 5.625 -23.890625 C 5.5625 -23.710938 5.5 -23.519531 5.4375 -23.3125 C 5.382812 -23.101562 5.328125 -22.863281 5.265625 -22.59375 C 5.203125 -22.320312 5.140625 -22.023438 5.078125 -21.703125 C 5.023438 -21.390625 4.984375 -21.070312 4.953125 -20.75 C 4.859375 -20.082031 4.453125 -19.585938 3.734375 -19.265625 C 3.253906 -19.046875 2.757812 -18.9375 2.25 -18.9375 C 1.738281 -18.9375 1.273438 -19.085938 0.859375 -19.390625 C 0.316406 -19.785156 0.046875 -20.3125 0.046875 -20.96875 L 0.1875 -27.3125 C 0.1875 -27.945312 0.363281 -28.457031 0.71875 -28.84375 C 1.132812 -29.289062 1.734375 -29.515625 2.515625 -29.515625 L 24.53125 -29.515625 C 24.851562 -29.515625 25.15625 -29.46875 25.4375 -29.375 C 25.726562 -29.289062 25.992188 -29.128906 26.234375 -28.890625 C 26.441406 -28.679688 26.585938 -28.441406 26.671875 -28.171875 C 26.765625 -27.898438 26.8125 -27.613281 26.8125 -27.3125 L 27 -20.96875 C 27 -20.632812 26.921875 -20.332031 26.765625 -20.0625 C 26.617188 -19.800781 26.410156 -19.578125 26.140625 -19.390625 C 25.722656 -19.085938 25.257812 -18.9375 24.75 -18.9375 C 24.476562 -18.9375 24.210938 -18.96875 23.953125 -19.03125 C 23.703125 -19.09375 23.472656 -19.171875 23.265625 -19.265625 C 22.578125 -19.585938 22.1875 -20.066406 22.09375 -20.703125 C 21.882812 -22.140625 21.644531 -23.21875 21.375 -23.9375 C 21.195312 -24.476562 20.925781 -24.882812 20.5625 -25.15625 C 20.382812 -25.269531 20.144531 -25.375 19.84375 -25.46875 C 19.539062 -25.5625 19.195312 -25.609375 18.8125 -25.609375 L 16.875 -25.609375 L 16.875 -5.265625 C 16.90625 -4.609375 16.96875 -4.082031 17.0625 -3.6875 C 17.082031 -3.601562 17.113281 -3.515625 17.15625 -3.421875 C 17.207031 -3.328125 17.296875 -3.238281 17.421875 -3.15625 C 17.628906 -3 18.046875 -2.921875 18.671875 -2.921875 L 18.9375 -2.921875 C 19.0625 -2.921875 19.164062 -2.910156 19.25 -2.890625 C 19.34375 -2.878906 19.445312 -2.863281 19.5625 -2.84375 C 19.6875 -2.832031 19.800781 -2.796875 19.90625 -2.734375 C 20.007812 -2.679688 20.125 -2.609375 20.25 -2.515625 C 20.632812 -2.210938 20.859375 -1.6875 20.921875 -0.9375 L 20.921875 -0.859375 C 20.921875 -0.347656 20.785156 0.101562 20.515625 0.5 C 20.398438 0.644531 20.257812 0.773438 20.09375 0.890625 C 19.925781 1.015625 19.742188 1.109375 19.546875 1.171875 C 19.359375 1.234375 19.171875 1.265625 18.984375 1.265625 L 18.9375 1.265625 C 17.976562 1.203125 17.0625 1.160156 16.1875 1.140625 C 15.320312 1.128906 14.488281 1.125 13.6875 1.125 C 11.914062 1.125 10.050781 1.171875 8.09375 1.265625 L 8.0625 1.265625 C 7.394531 1.265625 6.882812 1.007812 6.53125 0.5 Z M 6.53125 0.5 "/></g></g></g><g fill="#73b2d9" fill-opacity="1"><g transform="translate(257.156539, 191.499979)"><g><path d="M -1.265625 0.5 C -1.535156 0.101562 -1.671875 -0.347656 -1.671875 -0.859375 L -1.671875 -0.9375 C -1.671875 -0.9375 -1.671875 -0.96875 -1.671875 -1.03125 C -1.609375 -1.8125 -1.335938 -2.335938 -0.859375 -2.609375 C -0.523438 -2.816406 -0.148438 -2.921875 0.265625 -2.921875 L 0.671875 -2.921875 C 1.242188 -2.921875 1.617188 -3.023438 1.796875 -3.234375 C 2.160156 -3.628906 2.445312 -4.050781 2.65625 -4.5 C 2.6875 -4.625 2.722656 -4.726562 2.765625 -4.8125 C 2.804688 -4.90625 2.84375 -4.988281 2.875 -5.0625 C 2.90625 -5.132812 2.9375 -5.203125 2.96875 -5.265625 C 3 -5.328125 3.019531 -5.382812 3.03125 -5.4375 C 3.050781 -5.5 3.078125 -5.550781 3.109375 -5.59375 C 3.140625 -5.644531 3.15625 -5.6875 3.15625 -5.71875 L 4.234375 -8.28125 L 11.03125 -24.34375 C 11.144531 -24.644531 11.203125 -24.851562 11.203125 -24.96875 L 11.15625 -25.15625 C 10.832031 -25.332031 10.351562 -25.484375 9.71875 -25.609375 C 9.0625 -25.722656 8.597656 -25.882812 8.328125 -26.09375 C 7.898438 -26.425781 7.6875 -26.984375 7.6875 -27.765625 C 7.6875 -28.546875 7.957031 -29.101562 8.5 -29.4375 C 8.894531 -29.675781 9.40625 -29.796875 10.03125 -29.796875 C 10.570312 -29.796875 11.066406 -29.78125 11.515625 -29.75 C 11.960938 -29.71875 12.378906 -29.675781 12.765625 -29.625 C 13.160156 -29.582031 13.539062 -29.519531 13.90625 -29.4375 C 14.988281 -29.132812 15.929688 -28.578125 16.734375 -27.765625 C 17.484375 -26.984375 18.175781 -25.828125 18.8125 -24.296875 L 26.375 -5.671875 C 26.789062 -4.617188 27.179688 -3.851562 27.546875 -3.375 C 27.660156 -3.226562 27.789062 -3.113281 27.9375 -3.03125 C 28.09375 -2.957031 28.289062 -2.921875 28.53125 -2.921875 L 28.796875 -2.921875 C 29.367188 -2.921875 29.820312 -2.769531 30.15625 -2.46875 C 30.207031 -2.445312 30.265625 -2.40625 30.328125 -2.34375 C 30.390625 -2.28125 30.4375 -2.222656 30.46875 -2.171875 C 30.5 -2.128906 30.523438 -2.078125 30.546875 -2.015625 C 30.578125 -1.960938 30.597656 -1.910156 30.609375 -1.859375 C 30.628906 -1.816406 30.644531 -1.757812 30.65625 -1.6875 C 30.675781 -1.613281 30.691406 -1.5625 30.703125 -1.53125 C 30.722656 -1.5 30.734375 -1.445312 30.734375 -1.375 C 30.734375 -1.300781 30.738281 -1.25 30.75 -1.21875 C 30.769531 -1.1875 30.78125 -1.140625 30.78125 -1.078125 C 30.78125 -1.015625 30.78125 -0.96875 30.78125 -0.9375 L 30.78125 -0.859375 C 30.78125 -0.347656 30.644531 0.101562 30.375 0.5 C 30.25 0.644531 30.101562 0.773438 29.9375 0.890625 C 29.78125 1.015625 29.601562 1.109375 29.40625 1.171875 C 29.207031 1.234375 29.019531 1.265625 28.84375 1.265625 L 28.796875 1.265625 C 26.878906 1.171875 25.242188 1.125 23.890625 1.125 C 22.117188 1.125 20.273438 1.171875 18.359375 1.265625 L 18.3125 1.265625 C 18.132812 1.265625 17.945312 1.234375 17.75 1.171875 C 17.550781 1.109375 17.367188 1.015625 17.203125 0.890625 C 17.046875 0.773438 16.90625 0.644531 16.78125 0.5 C 16.632812 0.289062 16.53125 0.0703125 16.46875 -0.15625 C 16.40625 -0.382812 16.375 -0.617188 16.375 -0.859375 L 16.375 -0.9375 C 16.4375 -1.664062 16.648438 -2.175781 17.015625 -2.46875 C 17.335938 -2.769531 17.785156 -2.921875 18.359375 -2.921875 C 19.171875 -2.921875 19.726562 -2.984375 20.03125 -3.109375 C 20.03125 -3.140625 20.03125 -3.15625 20.03125 -3.15625 C 20.03125 -3.175781 20.015625 -3.257812 19.984375 -3.40625 C 19.953125 -3.5625 19.894531 -3.773438 19.8125 -4.046875 C 19.738281 -4.316406 19.660156 -4.585938 19.578125 -4.859375 L 18.3125 -7.875 L 8.734375 -7.875 C 8.429688 -7.15625 8.207031 -6.585938 8.0625 -6.171875 C 7.875 -5.773438 7.765625 -5.519531 7.734375 -5.40625 C 7.703125 -5.34375 7.675781 -5.25 7.65625 -5.125 C 7.65625 -5.070312 7.644531 -5.03125 7.625 -5 C 7.613281 -4.96875 7.609375 -4.9375 7.609375 -4.90625 C 7.453125 -4.488281 7.328125 -4.101562 7.234375 -3.75 C 7.148438 -3.40625 7.109375 -3.191406 7.109375 -3.109375 C 7.492188 -2.984375 8.195312 -2.921875 9.21875 -2.921875 L 9.5 -2.921875 C 10.0625 -2.921875 10.507812 -2.769531 10.84375 -2.46875 C 11.207031 -2.175781 11.414062 -1.664062 11.46875 -0.9375 L 11.46875 -0.859375 C 11.46875 -0.347656 11.332031 0.101562 11.0625 0.5 C 10.882812 0.738281 10.660156 0.925781 10.390625 1.0625 C 10.117188 1.195312 9.835938 1.265625 9.546875 1.265625 L 9.5 1.265625 C 8.539062 1.203125 7.65625 1.160156 6.84375 1.140625 C 6.03125 1.128906 5.296875 1.125 4.640625 1.125 C 3.703125 1.125 2.257812 1.171875 0.3125 1.265625 L 0.265625 1.265625 C -0.390625 1.265625 -0.898438 1.007812 -1.265625 0.5 Z M 10.484375 -12.0625 L 16.609375 -12.0625 L 13.640625 -19.671875 Z M 10.484375 -12.0625 "/></g></g></g><g fill="#000000" fill-opacity="1"><g transform="translate(166.441254, 213.749986)"><g><path d="M 0.59375 -7 L 5.515625 -7 L 5.515625 -6.21875 L 3.484375 -6.21875 L 3.484375 0 L 2.640625 0 L 2.640625 -6.21875 L 0.59375 -6.21875 Z M 0.59375 -7 "/></g></g></g><g fill="#000000" fill-opacity="1"><g transform="translate(172.558842, 213.749986)"><g><path d="M 0.59375 -4.953125 L 2.390625 -4.953125 L 2.390625 -4.296875 L 2.515625 -4.296875 C 2.640625 -4.566406 2.816406 -4.765625 3.046875 -4.890625 C 3.285156 -5.023438 3.550781 -5.09375 3.84375 -5.09375 C 4.34375 -5.09375 4.742188 -4.929688 5.046875 -4.609375 C 5.359375 -4.285156 5.523438 -3.8125 5.546875 -3.1875 L 4.734375 -3.0625 C 4.734375 -3.519531 4.617188 -3.847656 4.390625 -4.046875 C 4.171875 -4.253906 3.90625 -4.359375 3.59375 -4.359375 C 3.382812 -4.359375 3.203125 -4.316406 3.046875 -4.234375 C 2.898438 -4.160156 2.773438 -4.050781 2.671875 -3.90625 C 2.578125 -3.769531 2.503906 -3.609375 2.453125 -3.421875 C 2.410156 -3.234375 2.390625 -3.03125 2.390625 -2.8125 L 2.390625 -0.71875 L 3.65625 -0.71875 L 3.65625 0 L 0.46875 0 L 0.46875 -0.71875 L 1.609375 -0.71875 L 1.609375 -4.234375 L 0.59375 -4.234375 Z M 0.59375 -4.953125 "/></g></g></g><g fill="#000000" fill-opacity="1"><g transform="translate(178.67643, 213.749986)"><g><path d="M 4.46875 -0.84375 L 4.34375 -0.84375 C 4.1875 -0.507812 3.96875 -0.257812 3.6875 -0.09375 C 3.40625 0.0625 3.109375 0.140625 2.796875 0.140625 C 2.460938 0.140625 2.15625 0.0859375 1.875 -0.015625 C 1.59375 -0.128906 1.347656 -0.296875 1.140625 -0.515625 C 0.929688 -0.734375 0.765625 -1 0.640625 -1.3125 C 0.523438 -1.625 0.46875 -1.988281 0.46875 -2.40625 L 0.46875 -2.5625 C 0.46875 -2.96875 0.523438 -3.328125 0.640625 -3.640625 C 0.765625 -3.953125 0.929688 -4.21875 1.140625 -4.4375 C 1.347656 -4.65625 1.59375 -4.816406 1.875 -4.921875 C 2.15625 -5.035156 2.453125 -5.09375 2.765625 -5.09375 C 3.109375 -5.09375 3.414062 -5.019531 3.6875 -4.875 C 3.96875 -4.726562 4.1875 -4.5 4.34375 -4.1875 L 4.46875 -4.1875 L 4.46875 -4.953125 L 5.25 -4.953125 L 5.25 -1.015625 C 5.25 -0.816406 5.335938 -0.71875 5.515625 -0.71875 L 5.765625 -0.71875 L 5.765625 0 L 5.234375 0 C 5.015625 0 4.832031 -0.0703125 4.6875 -0.21875 C 4.539062 -0.363281 4.46875 -0.550781 4.46875 -0.78125 Z M 2.875 -0.59375 C 3.101562 -0.59375 3.316406 -0.632812 3.515625 -0.71875 C 3.710938 -0.8125 3.878906 -0.9375 4.015625 -1.09375 C 4.160156 -1.257812 4.269531 -1.453125 4.34375 -1.671875 C 4.425781 -1.898438 4.46875 -2.148438 4.46875 -2.421875 L 4.46875 -2.546875 C 4.46875 -2.804688 4.425781 -3.046875 4.34375 -3.265625 C 4.269531 -3.492188 4.160156 -3.6875 4.015625 -3.84375 C 3.867188 -4.007812 3.695312 -4.132812 3.5 -4.21875 C 3.300781 -4.3125 3.09375 -4.359375 2.875 -4.359375 C 2.632812 -4.359375 2.414062 -4.3125 2.21875 -4.21875 C 2.03125 -4.132812 1.863281 -4.015625 1.71875 -3.859375 C 1.582031 -3.703125 1.472656 -3.507812 1.390625 -3.28125 C 1.304688 -3.0625 1.265625 -2.820312 1.265625 -2.5625 L 1.265625 -2.40625 C 1.265625 -1.832031 1.410156 -1.382812 1.703125 -1.0625 C 2.003906 -0.75 2.394531 -0.59375 2.875 -0.59375 Z M 2.875 -0.59375 "/></g></g></g><g fill="#000000" fill-opacity="1"><g transform="translate(184.794017, 213.749986)"><g><path d="M 1.65625 0 L 0.875 0 L 0.875 -4.953125 L 1.65625 -4.953125 L 1.65625 -4.125 L 1.765625 -4.125 C 2.078125 -4.769531 2.613281 -5.09375 3.375 -5.09375 C 3.945312 -5.09375 4.398438 -4.914062 4.734375 -4.5625 C 5.078125 -4.207031 5.25 -3.671875 5.25 -2.953125 L 5.25 0 L 4.46875 0 L 4.46875 -2.796875 C 4.46875 -3.316406 4.347656 -3.707031 4.109375 -3.96875 C 3.878906 -4.226562 3.566406 -4.359375 3.171875 -4.359375 C 2.691406 -4.359375 2.316406 -4.195312 2.046875 -3.875 C 1.785156 -3.550781 1.65625 -3.117188 1.65625 -2.578125 Z M 1.65625 0 "/></g></g></g><g fill="#000000" fill-opacity="1"><g transform="translate(190.911605, 213.749986)"><g><path d="M 1.90625 -3.6875 C 1.90625 -3.4375 2.003906 -3.25 2.203125 -3.125 C 2.410156 -3 2.78125 -2.914062 3.3125 -2.875 C 3.894531 -2.832031 4.335938 -2.695312 4.640625 -2.46875 C 4.941406 -2.238281 5.09375 -1.898438 5.09375 -1.453125 L 5.09375 -1.40625 C 5.09375 -1.164062 5.046875 -0.945312 4.953125 -0.75 C 4.859375 -0.5625 4.722656 -0.398438 4.546875 -0.265625 C 4.378906 -0.128906 4.171875 -0.03125 3.921875 0.03125 C 3.679688 0.101562 3.421875 0.140625 3.140625 0.140625 C 2.753906 0.140625 2.421875 0.0859375 2.140625 -0.015625 C 1.867188 -0.117188 1.640625 -0.253906 1.453125 -0.421875 C 1.273438 -0.597656 1.140625 -0.789062 1.046875 -1 C 0.953125 -1.21875 0.894531 -1.4375 0.875 -1.65625 L 1.625 -1.84375 C 1.65625 -1.457031 1.800781 -1.148438 2.0625 -0.921875 C 2.320312 -0.691406 2.664062 -0.578125 3.09375 -0.578125 C 3.46875 -0.578125 3.765625 -0.648438 3.984375 -0.796875 C 4.203125 -0.941406 4.3125 -1.144531 4.3125 -1.40625 C 4.3125 -1.675781 4.203125 -1.875 3.984375 -2 C 3.765625 -2.125 3.410156 -2.203125 2.921875 -2.234375 C 2.347656 -2.273438 1.90625 -2.40625 1.59375 -2.625 C 1.289062 -2.851562 1.140625 -3.1875 1.140625 -3.625 L 1.140625 -3.6875 C 1.140625 -3.914062 1.1875 -4.117188 1.28125 -4.296875 C 1.382812 -4.472656 1.519531 -4.617188 1.6875 -4.734375 C 1.863281 -4.859375 2.054688 -4.945312 2.265625 -5 C 2.484375 -5.0625 2.707031 -5.09375 2.9375 -5.09375 C 3.269531 -5.09375 3.554688 -5.046875 3.796875 -4.953125 C 4.046875 -4.867188 4.253906 -4.753906 4.421875 -4.609375 C 4.585938 -4.472656 4.710938 -4.3125 4.796875 -4.125 C 4.890625 -3.9375 4.953125 -3.75 4.984375 -3.5625 L 4.234375 -3.375 C 4.203125 -3.695312 4.070312 -3.945312 3.84375 -4.125 C 3.625 -4.3125 3.335938 -4.40625 2.984375 -4.40625 C 2.835938 -4.40625 2.695312 -4.390625 2.5625 -4.359375 C 2.4375 -4.328125 2.320312 -4.28125 2.21875 -4.21875 C 2.125 -4.15625 2.046875 -4.078125 1.984375 -3.984375 C 1.929688 -3.898438 1.90625 -3.800781 1.90625 -3.6875 Z M 1.90625 -3.6875 "/></g></g></g><g fill="#000000" fill-opacity="1"><g transform="translate(197.029193, 213.749986)"><g><path d="M 1.46875 2 L 0.6875 2 L 0.6875 -4.953125 L 1.46875 -4.953125 L 1.46875 -4.1875 L 1.59375 -4.1875 C 1.757812 -4.476562 1.992188 -4.703125 2.296875 -4.859375 C 2.609375 -5.015625 2.945312 -5.09375 3.3125 -5.09375 C 3.613281 -5.09375 3.898438 -5.035156 4.171875 -4.921875 C 4.453125 -4.816406 4.695312 -4.65625 4.90625 -4.4375 C 5.113281 -4.226562 5.28125 -3.96875 5.40625 -3.65625 C 5.53125 -3.34375 5.59375 -2.984375 5.59375 -2.578125 L 5.59375 -2.375 C 5.59375 -1.96875 5.53125 -1.609375 5.40625 -1.296875 C 5.289062 -0.984375 5.125 -0.71875 4.90625 -0.5 C 4.695312 -0.289062 4.453125 -0.128906 4.171875 -0.015625 C 3.898438 0.0859375 3.609375 0.140625 3.296875 0.140625 C 3.128906 0.140625 2.960938 0.117188 2.796875 0.078125 C 2.628906 0.046875 2.46875 -0.00390625 2.3125 -0.078125 C 2.164062 -0.160156 2.03125 -0.253906 1.90625 -0.359375 C 1.78125 -0.472656 1.675781 -0.609375 1.59375 -0.765625 L 1.46875 -0.765625 Z M 3.125 -0.59375 C 3.363281 -0.59375 3.582031 -0.632812 3.78125 -0.71875 C 3.988281 -0.800781 4.164062 -0.921875 4.3125 -1.078125 C 4.46875 -1.234375 4.585938 -1.421875 4.671875 -1.640625 C 4.753906 -1.859375 4.796875 -2.101562 4.796875 -2.375 L 4.796875 -2.578125 C 4.796875 -2.847656 4.753906 -3.085938 4.671875 -3.296875 C 4.585938 -3.515625 4.46875 -3.703125 4.3125 -3.859375 C 4.164062 -4.015625 3.988281 -4.132812 3.78125 -4.21875 C 3.582031 -4.3125 3.363281 -4.359375 3.125 -4.359375 C 2.894531 -4.359375 2.679688 -4.3125 2.484375 -4.21875 C 2.285156 -4.132812 2.109375 -4.007812 1.953125 -3.84375 C 1.804688 -3.6875 1.6875 -3.492188 1.59375 -3.265625 C 1.507812 -3.046875 1.46875 -2.804688 1.46875 -2.546875 L 1.46875 -2.421875 C 1.46875 -2.148438 1.507812 -1.898438 1.59375 -1.671875 C 1.6875 -1.453125 1.804688 -1.257812 1.953125 -1.09375 C 2.109375 -0.9375 2.285156 -0.8125 2.484375 -0.71875 C 2.679688 -0.632812 2.894531 -0.59375 3.125 -0.59375 Z M 3.125 -0.59375 "/></g></g></g><g fill="#000000" fill-opacity="1"><g transform="translate(203.14678, 213.749986)"><g><path d="M 5.546875 -2.421875 C 5.546875 -2.003906 5.476562 -1.632812 5.34375 -1.3125 C 5.207031 -1 5.023438 -0.734375 4.796875 -0.515625 C 4.566406 -0.304688 4.300781 -0.144531 4 -0.03125 C 3.695312 0.0820312 3.382812 0.140625 3.0625 0.140625 C 2.726562 0.140625 2.410156 0.0820312 2.109375 -0.03125 C 1.804688 -0.144531 1.539062 -0.304688 1.3125 -0.515625 C 1.09375 -0.734375 0.910156 -1 0.765625 -1.3125 C 0.628906 -1.632812 0.5625 -2.003906 0.5625 -2.421875 L 0.5625 -2.546875 C 0.5625 -2.953125 0.628906 -3.3125 0.765625 -3.625 C 0.910156 -3.9375 1.097656 -4.203125 1.328125 -4.421875 C 1.554688 -4.648438 1.816406 -4.816406 2.109375 -4.921875 C 2.410156 -5.035156 2.726562 -5.09375 3.0625 -5.09375 C 3.382812 -5.09375 3.695312 -5.035156 4 -4.921875 C 4.300781 -4.816406 4.566406 -4.648438 4.796875 -4.421875 C 5.023438 -4.203125 5.207031 -3.9375 5.34375 -3.625 C 5.476562 -3.3125 5.546875 -2.953125 5.546875 -2.546875 Z M 3.0625 -0.59375 C 3.300781 -0.59375 3.519531 -0.632812 3.71875 -0.71875 C 3.925781 -0.800781 4.101562 -0.921875 4.25 -1.078125 C 4.40625 -1.242188 4.523438 -1.4375 4.609375 -1.65625 C 4.703125 -1.882812 4.75 -2.140625 4.75 -2.421875 L 4.75 -2.546875 C 4.75 -2.804688 4.703125 -3.046875 4.609375 -3.265625 C 4.523438 -3.492188 4.40625 -3.6875 4.25 -3.84375 C 4.101562 -4.007812 3.925781 -4.132812 3.71875 -4.21875 C 3.507812 -4.3125 3.289062 -4.359375 3.0625 -4.359375 C 2.820312 -4.359375 2.597656 -4.3125 2.390625 -4.21875 C 2.191406 -4.132812 2.015625 -4.007812 1.859375 -3.84375 C 1.703125 -3.6875 1.582031 -3.492188 1.5 -3.265625 C 1.414062 -3.046875 1.375 -2.804688 1.375 -2.546875 L 1.375 -2.421875 C 1.375 -2.140625 1.414062 -1.882812 1.5 -1.65625 C 1.582031 -1.4375 1.703125 -1.242188 1.859375 -1.078125 C 2.015625 -0.921875 2.191406 -0.800781 2.390625 -0.71875 C 2.597656 -0.632812 2.820312 -0.59375 3.0625 -0.59375 Z M 3.0625 -0.59375 "/></g></g></g><g fill="#000000" fill-opacity="1"><g transform="translate(209.264368, 213.749986)"><g><path d="M 0.59375 -4.953125 L 2.390625 -4.953125 L 2.390625 -4.296875 L 2.515625 -4.296875 C 2.640625 -4.566406 2.816406 -4.765625 3.046875 -4.890625 C 3.285156 -5.023438 3.550781 -5.09375 3.84375 -5.09375 C 4.34375 -5.09375 4.742188 -4.929688 5.046875 -4.609375 C 5.359375 -4.285156 5.523438 -3.8125 5.546875 -3.1875 L 4.734375 -3.0625 C 4.734375 -3.519531 4.617188 -3.847656 4.390625 -4.046875 C 4.171875 -4.253906 3.90625 -4.359375 3.59375 -4.359375 C 3.382812 -4.359375 3.203125 -4.316406 3.046875 -4.234375 C 2.898438 -4.160156 2.773438 -4.050781 2.671875 -3.90625 C 2.578125 -3.769531 2.503906 -3.609375 2.453125 -3.421875 C 2.410156 -3.234375 2.390625 -3.03125 2.390625 -2.8125 L 2.390625 -0.71875 L 3.65625 -0.71875 L 3.65625 0 L 0.46875 0 L 0.46875 -0.71875 L 1.609375 -0.71875 L 1.609375 -4.234375 L 0.59375 -4.234375 Z M 0.59375 -4.953125 "/></g></g></g><g fill="#000000" fill-opacity="1"><g transform="translate(215.381956, 213.749986)"><g><path d="M 0.703125 -4.953125 L 2.265625 -4.953125 L 2.265625 -7 L 3.046875 -7 L 3.046875 -4.953125 L 4.953125 -4.953125 L 4.953125 -4.234375 L 3.046875 -4.234375 L 3.046875 -1.015625 C 3.046875 -0.816406 3.132812 -0.71875 3.3125 -0.71875 L 4.71875 -0.71875 L 4.71875 0 L 3.03125 0 C 2.800781 0 2.613281 -0.0703125 2.46875 -0.21875 C 2.332031 -0.363281 2.265625 -0.550781 2.265625 -0.78125 L 2.265625 -4.234375 L 0.703125 -4.234375 Z M 0.703125 -4.953125 "/></g></g></g><g fill="#000000" fill-opacity="1"><g transform="translate(221.499543, 213.749986)"><g><path d="M 4.46875 -0.84375 L 4.34375 -0.84375 C 4.1875 -0.507812 3.96875 -0.257812 3.6875 -0.09375 C 3.40625 0.0625 3.109375 0.140625 2.796875 0.140625 C 2.460938 0.140625 2.15625 0.0859375 1.875 -0.015625 C 1.59375 -0.128906 1.347656 -0.296875 1.140625 -0.515625 C 0.929688 -0.734375 0.765625 -1 0.640625 -1.3125 C 0.523438 -1.625 0.46875 -1.988281 0.46875 -2.40625 L 0.46875 -2.5625 C 0.46875 -2.96875 0.523438 -3.328125 0.640625 -3.640625 C 0.765625 -3.953125 0.929688 -4.21875 1.140625 -4.4375 C 1.347656 -4.65625 1.59375 -4.816406 1.875 -4.921875 C 2.15625 -5.035156 2.453125 -5.09375 2.765625 -5.09375 C 3.109375 -5.09375 3.414062 -5.019531 3.6875 -4.875 C 3.96875 -4.726562 4.1875 -4.5 4.34375 -4.1875 L 4.46875 -4.1875 L 4.46875 -4.953125 L 5.25 -4.953125 L 5.25 -1.015625 C 5.25 -0.816406 5.335938 -0.71875 5.515625 -0.71875 L 5.765625 -0.71875 L 5.765625 0 L 5.234375 0 C 5.015625 0 4.832031 -0.0703125 4.6875 -0.21875 C 4.539062 -0.363281 4.46875 -0.550781 4.46875 -0.78125 Z M 2.875 -0.59375 C 3.101562 -0.59375 3.316406 -0.632812 3.515625 -0.71875 C 3.710938 -0.8125 3.878906 -0.9375 4.015625 -1.09375 C 4.160156 -1.257812 4.269531 -1.453125 4.34375 -1.671875 C 4.425781 -1.898438 4.46875 -2.148438 4.46875 -2.421875 L 4.46875 -2.546875 C 4.46875 -2.804688 4.425781 -3.046875 4.34375 -3.265625 C 4.269531 -3.492188 4.160156 -3.6875 4.015625 -3.84375 C 3.867188 -4.007812 3.695312 -4.132812 3.5 -4.21875 C 3.300781 -4.3125 3.09375 -4.359375 2.875 -4.359375 C 2.632812 -4.359375 2.414062 -4.3125 2.21875 -4.21875 C 2.03125 -4.132812 1.863281 -4.015625 1.71875 -3.859375 C 1.582031 -3.703125 1.472656 -3.507812 1.390625 -3.28125 C 1.304688 -3.0625 1.265625 -2.820312 1.265625 -2.5625 L 1.265625 -2.40625 C 1.265625 -1.832031 1.410156 -1.382812 1.703125 -1.0625 C 2.003906 -0.75 2.394531 -0.59375 2.875 -0.59375 Z M 2.875 -0.59375 "/></g></g></g><g fill="#000000" fill-opacity="1"><g transform="translate(227.617131, 213.749986)"><g><path d="M 0.703125 -4.953125 L 2.265625 -4.953125 L 2.265625 -7 L 3.046875 -7 L 3.046875 -4.953125 L 4.953125 -4.953125 L 4.953125 -4.234375 L 3.046875 -4.234375 L 3.046875 -1.015625 C 3.046875 -0.816406 3.132812 -0.71875 3.3125 -0.71875 L 4.71875 -0.71875 L 4.71875 0 L 3.03125 0 C 2.800781 0 2.613281 -0.0703125 2.46875 -0.21875 C 2.332031 -0.363281 2.265625 -0.550781 2.265625 -0.78125 L 2.265625 -4.234375 L 0.703125 -4.234375 Z M 0.703125 -4.953125 "/></g></g></g><g fill="#000000" fill-opacity="1"><g transform="translate(233.734719, 213.749986)"><g><path d="M 2.40625 -6.4375 C 2.40625 -6.632812 2.472656 -6.800781 2.609375 -6.9375 C 2.742188 -7.070312 2.910156 -7.140625 3.109375 -7.140625 C 3.304688 -7.140625 3.472656 -7.070312 3.609375 -6.9375 C 3.742188 -6.800781 3.8125 -6.632812 3.8125 -6.4375 C 3.8125 -6.25 3.742188 -6.082031 3.609375 -5.9375 C 3.472656 -5.800781 3.304688 -5.734375 3.109375 -5.734375 C 2.910156 -5.734375 2.742188 -5.800781 2.609375 -5.9375 C 2.472656 -6.082031 2.40625 -6.25 2.40625 -6.4375 Z M 0.984375 -0.71875 L 2.734375 -0.71875 L 2.734375 -4.234375 L 1.171875 -4.234375 L 1.171875 -4.953125 L 3.515625 -4.953125 L 3.515625 -0.71875 L 5.125 -0.71875 L 5.125 0 L 0.984375 0 Z M 0.984375 -0.71875 "/></g></g></g><g fill="#000000" fill-opacity="1"><g transform="translate(239.852306, 213.749986)"><g><path d="M 5.546875 -2.421875 C 5.546875 -2.003906 5.476562 -1.632812 5.34375 -1.3125 C 5.207031 -1 5.023438 -0.734375 4.796875 -0.515625 C 4.566406 -0.304688 4.300781 -0.144531 4 -0.03125 C 3.695312 0.0820312 3.382812 0.140625 3.0625 0.140625 C 2.726562 0.140625 2.410156 0.0820312 2.109375 -0.03125 C 1.804688 -0.144531 1.539062 -0.304688 1.3125 -0.515625 C 1.09375 -0.734375 0.910156 -1 0.765625 -1.3125 C 0.628906 -1.632812 0.5625 -2.003906 0.5625 -2.421875 L 0.5625 -2.546875 C 0.5625 -2.953125 0.628906 -3.3125 0.765625 -3.625 C 0.910156 -3.9375 1.097656 -4.203125 1.328125 -4.421875 C 1.554688 -4.648438 1.816406 -4.816406 2.109375 -4.921875 C 2.410156 -5.035156 2.726562 -5.09375 3.0625 -5.09375 C 3.382812 -5.09375 3.695312 -5.035156 4 -4.921875 C 4.300781 -4.816406 4.566406 -4.648438 4.796875 -4.421875 C 5.023438 -4.203125 5.207031 -3.9375 5.34375 -3.625 C 5.476562 -3.3125 5.546875 -2.953125 5.546875 -2.546875 Z M 3.0625 -0.59375 C 3.300781 -0.59375 3.519531 -0.632812 3.71875 -0.71875 C 3.925781 -0.800781 4.101562 -0.921875 4.25 -1.078125 C 4.40625 -1.242188 4.523438 -1.4375 4.609375 -1.65625 C 4.703125 -1.882812 4.75 -2.140625 4.75 -2.421875 L 4.75 -2.546875 C 4.75 -2.804688 4.703125 -3.046875 4.609375 -3.265625 C 4.523438 -3.492188 4.40625 -3.6875 4.25 -3.84375 C 4.101562 -4.007812 3.925781 -4.132812 3.71875 -4.21875 C 3.507812 -4.3125 3.289062 -4.359375 3.0625 -4.359375 C 2.820312 -4.359375 2.597656 -4.3125 2.390625 -4.21875 C 2.191406 -4.132812 2.015625 -4.007812 1.859375 -3.84375 C 1.703125 -3.6875 1.582031 -3.492188 1.5 -3.265625 C 1.414062 -3.046875 1.375 -2.804688 1.375 -2.546875 L 1.375 -2.421875 C 1.375 -2.140625 1.414062 -1.882812 1.5 -1.65625 C 1.582031 -1.4375 1.703125 -1.242188 1.859375 -1.078125 C 2.015625 -0.921875 2.191406 -0.800781 2.390625 -0.71875 C 2.597656 -0.632812 2.820312 -0.59375 3.0625 -0.59375 Z M 3.0625 -0.59375 "/></g></g></g><g fill="#000000" fill-opacity="1"><g transform="translate(245.969894, 213.749986)"><g><path d="M 1.65625 0 L 0.875 0 L 0.875 -4.953125 L 1.65625 -4.953125 L 1.65625 -4.125 L 1.765625 -4.125 C 2.078125 -4.769531 2.613281 -5.09375 3.375 -5.09375 C 3.945312 -5.09375 4.398438 -4.914062 4.734375 -4.5625 C 5.078125 -4.207031 5.25 -3.671875 5.25 -2.953125 L 5.25 0 L 4.46875 0 L 4.46875 -2.796875 C 4.46875 -3.316406 4.347656 -3.707031 4.109375 -3.96875 C 3.878906 -4.226562 3.566406 -4.359375 3.171875 -4.359375 C 2.691406 -4.359375 2.316406 -4.195312 2.046875 -3.875 C 1.785156 -3.550781 1.65625 -3.117188 1.65625 -2.578125 Z M 1.65625 0 "/></g></g></g><g fill="#000000" fill-opacity="1"><g transform="translate(252.087482, 213.749986)"><g/></g></g><g fill="#000000" fill-opacity="1"><g transform="translate(258.205069, 213.749986)"><g><path d="M 4.703125 -4.984375 C 4.703125 -5.203125 4.65625 -5.398438 4.5625 -5.578125 C 4.476562 -5.753906 4.359375 -5.898438 4.203125 -6.015625 C 4.054688 -6.128906 3.878906 -6.210938 3.671875 -6.265625 C 3.472656 -6.328125 3.265625 -6.359375 3.046875 -6.359375 C 2.859375 -6.359375 2.675781 -6.332031 2.5 -6.28125 C 2.320312 -6.226562 2.164062 -6.15625 2.03125 -6.0625 C 1.894531 -5.976562 1.785156 -5.863281 1.703125 -5.71875 C 1.628906 -5.582031 1.59375 -5.425781 1.59375 -5.25 L 1.59375 -5.1875 C 1.59375 -5 1.628906 -4.832031 1.703125 -4.6875 C 1.785156 -4.550781 1.90625 -4.4375 2.0625 -4.34375 C 2.21875 -4.25 2.410156 -4.171875 2.640625 -4.109375 C 2.878906 -4.046875 3.15625 -3.988281 3.46875 -3.9375 C 4.195312 -3.820312 4.734375 -3.601562 5.078125 -3.28125 C 5.429688 -2.96875 5.609375 -2.546875 5.609375 -2.015625 L 5.609375 -1.90625 C 5.609375 -1.601562 5.554688 -1.328125 5.453125 -1.078125 C 5.347656 -0.828125 5.191406 -0.609375 4.984375 -0.421875 C 4.785156 -0.242188 4.535156 -0.101562 4.234375 0 C 3.941406 0.09375 3.597656 0.140625 3.203125 0.140625 C 2.753906 0.140625 2.359375 0.078125 2.015625 -0.046875 C 1.671875 -0.179688 1.382812 -0.363281 1.15625 -0.59375 C 0.925781 -0.820312 0.75 -1.09375 0.625 -1.40625 C 0.507812 -1.71875 0.453125 -2.054688 0.453125 -2.421875 L 0.453125 -2.71875 L 1.296875 -2.71875 L 1.296875 -2.484375 C 1.296875 -1.867188 1.460938 -1.40625 1.796875 -1.09375 C 2.128906 -0.789062 2.597656 -0.640625 3.203125 -0.640625 C 3.722656 -0.640625 4.113281 -0.753906 4.375 -0.984375 C 4.632812 -1.210938 4.765625 -1.519531 4.765625 -1.90625 L 4.765625 -1.953125 C 4.765625 -2.328125 4.628906 -2.609375 4.359375 -2.796875 C 4.085938 -2.992188 3.648438 -3.132812 3.046875 -3.21875 C 2.691406 -3.269531 2.375 -3.34375 2.09375 -3.4375 C 1.8125 -3.53125 1.566406 -3.65625 1.359375 -3.8125 C 1.160156 -3.96875 1.007812 -4.15625 0.90625 -4.375 C 0.800781 -4.59375 0.75 -4.851562 0.75 -5.15625 L 0.75 -5.28125 C 0.75 -5.550781 0.804688 -5.800781 0.921875 -6.03125 C 1.035156 -6.257812 1.191406 -6.457031 1.390625 -6.625 C 1.597656 -6.789062 1.84375 -6.914062 2.125 -7 C 2.40625 -7.09375 2.71875 -7.140625 3.0625 -7.140625 C 3.457031 -7.140625 3.804688 -7.082031 4.109375 -6.96875 C 4.421875 -6.851562 4.679688 -6.703125 4.890625 -6.515625 C 5.109375 -6.328125 5.269531 -6.101562 5.375 -5.84375 C 5.488281 -5.582031 5.546875 -5.316406 5.546875 -5.046875 L 5.546875 -4.625 L 4.703125 -4.625 Z M 4.703125 -4.984375 "/></g></g></g><g fill="#000000" fill-opacity="1"><g transform="translate(264.322657, 213.749986)"><g><path d="M 1.65625 0 L 0.875 0 L 0.875 -7 L 1.65625 -7 L 1.65625 -4.0625 L 1.765625 -4.0625 C 1.921875 -4.382812 2.132812 -4.632812 2.40625 -4.8125 C 2.6875 -5 3.03125 -5.09375 3.4375 -5.09375 C 3.96875 -5.09375 4.398438 -4.914062 4.734375 -4.5625 C 5.078125 -4.207031 5.25 -3.671875 5.25 -2.953125 L 5.25 0 L 4.46875 0 L 4.46875 -2.796875 C 4.46875 -3.316406 4.347656 -3.707031 4.109375 -3.96875 C 3.878906 -4.226562 3.566406 -4.359375 3.171875 -4.359375 C 2.691406 -4.359375 2.316406 -4.195312 2.046875 -3.875 C 1.785156 -3.550781 1.65625 -3.117188 1.65625 -2.578125 Z M 1.65625 0 "/></g></g></g><g fill="#000000" fill-opacity="1"><g transform="translate(270.440245, 213.749986)"><g><path d="M 4.46875 -0.84375 L 4.34375 -0.84375 C 4.1875 -0.507812 3.96875 -0.257812 3.6875 -0.09375 C 3.40625 0.0625 3.109375 0.140625 2.796875 0.140625 C 2.460938 0.140625 2.15625 0.0859375 1.875 -0.015625 C 1.59375 -0.128906 1.347656 -0.296875 1.140625 -0.515625 C 0.929688 -0.734375 0.765625 -1 0.640625 -1.3125 C 0.523438 -1.625 0.46875 -1.988281 0.46875 -2.40625 L 0.46875 -2.5625 C 0.46875 -2.96875 0.523438 -3.328125 0.640625 -3.640625 C 0.765625 -3.953125 0.929688 -4.21875 1.140625 -4.4375 C 1.347656 -4.65625 1.59375 -4.816406 1.875 -4.921875 C 2.15625 -5.035156 2.453125 -5.09375 2.765625 -5.09375 C 3.109375 -5.09375 3.414062 -5.019531 3.6875 -4.875 C 3.96875 -4.726562 4.1875 -4.5 4.34375 -4.1875 L 4.46875 -4.1875 L 4.46875 -4.953125 L 5.25 -4.953125 L 5.25 -1.015625 C 5.25 -0.816406 5.335938 -0.71875 5.515625 -0.71875 L 5.765625 -0.71875 L 5.765625 0 L 5.234375 0 C 5.015625 0 4.832031 -0.0703125 4.6875 -0.21875 C 4.539062 -0.363281 4.46875 -0.550781 4.46875 -0.78125 Z M 2.875 -0.59375 C 3.101562 -0.59375 3.316406 -0.632812 3.515625 -0.71875 C 3.710938 -0.8125 3.878906 -0.9375 4.015625 -1.09375 C 4.160156 -1.257812 4.269531 -1.453125 4.34375 -1.671875 C 4.425781 -1.898438 4.46875 -2.148438 4.46875 -2.421875 L 4.46875 -2.546875 C 4.46875 -2.804688 4.425781 -3.046875 4.34375 -3.265625 C 4.269531 -3.492188 4.160156 -3.6875 4.015625 -3.84375 C 3.867188 -4.007812 3.695312 -4.132812 3.5 -4.21875 C 3.300781 -4.3125 3.09375 -4.359375 2.875 -4.359375 C 2.632812 -4.359375 2.414062 -4.3125 2.21875 -4.21875 C 2.03125 -4.132812 1.863281 -4.015625 1.71875 -3.859375 C 1.582031 -3.703125 1.472656 -3.507812 1.390625 -3.28125 C 1.304688 -3.0625 1.265625 -2.820312 1.265625 -2.5625 L 1.265625 -2.40625 C 1.265625 -1.832031 1.410156 -1.382812 1.703125 -1.0625 C 2.003906 -0.75 2.394531 -0.59375 2.875 -0.59375 Z M 2.875 -0.59375 "/></g></g></g><g fill="#000000" fill-opacity="1"><g transform="translate(276.557832, 213.749986)"><g><path d="M 0.59375 -4.953125 L 2.390625 -4.953125 L 2.390625 -4.296875 L 2.515625 -4.296875 C 2.640625 -4.566406 2.816406 -4.765625 3.046875 -4.890625 C 3.285156 -5.023438 3.550781 -5.09375 3.84375 -5.09375 C 4.34375 -5.09375 4.742188 -4.929688 5.046875 -4.609375 C 5.359375 -4.285156 5.523438 -3.8125 5.546875 -3.1875 L 4.734375 -3.0625 C 4.734375 -3.519531 4.617188 -3.847656 4.390625 -4.046875 C 4.171875 -4.253906 3.90625 -4.359375 3.59375 -4.359375 C 3.382812 -4.359375 3.203125 -4.316406 3.046875 -4.234375 C 2.898438 -4.160156 2.773438 -4.050781 2.671875 -3.90625 C 2.578125 -3.769531 2.503906 -3.609375 2.453125 -3.421875 C 2.410156 -3.234375 2.390625 -3.03125 2.390625 -2.8125 L 2.390625 -0.71875 L 3.65625 -0.71875 L 3.65625 0 L 0.46875 0 L 0.46875 -0.71875 L 1.609375 -0.71875 L 1.609375 -4.234375 L 0.59375 -4.234375 Z M 0.59375 -4.953125 "/></g></g></g><g fill="#000000" fill-opacity="1"><g transform="translate(282.67542, 213.749986)"><g><path d="M 2.40625 -6.4375 C 2.40625 -6.632812 2.472656 -6.800781 2.609375 -6.9375 C 2.742188 -7.070312 2.910156 -7.140625 3.109375 -7.140625 C 3.304688 -7.140625 3.472656 -7.070312 3.609375 -6.9375 C 3.742188 -6.800781 3.8125 -6.632812 3.8125 -6.4375 C 3.8125 -6.25 3.742188 -6.082031 3.609375 -5.9375 C 3.472656 -5.800781 3.304688 -5.734375 3.109375 -5.734375 C 2.910156 -5.734375 2.742188 -5.800781 2.609375 -5.9375 C 2.472656 -6.082031 2.40625 -6.25 2.40625 -6.4375 Z M 0.984375 -0.71875 L 2.734375 -0.71875 L 2.734375 -4.234375 L 1.171875 -4.234375 L 1.171875 -4.953125 L 3.515625 -4.953125 L 3.515625 -0.71875 L 5.125 -0.71875 L 5.125 0 L 0.984375 0 Z M 0.984375 -0.71875 "/></g></g></g><g fill="#000000" fill-opacity="1"><g transform="translate(288.793008, 213.749986)"><g><path d="M 1.65625 0 L 0.875 0 L 0.875 -4.953125 L 1.65625 -4.953125 L 1.65625 -4.125 L 1.765625 -4.125 C 2.078125 -4.769531 2.613281 -5.09375 3.375 -5.09375 C 3.945312 -5.09375 4.398438 -4.914062 4.734375 -4.5625 C 5.078125 -4.207031 5.25 -3.671875 5.25 -2.953125 L 5.25 0 L 4.46875 0 L 4.46875 -2.796875 C 4.46875 -3.316406 4.347656 -3.707031 4.109375 -3.96875 C 3.878906 -4.226562 3.566406 -4.359375 3.171875 -4.359375 C 2.691406 -4.359375 2.316406 -4.195312 2.046875 -3.875 C 1.785156 -3.550781 1.65625 -3.117188 1.65625 -2.578125 Z M 1.65625 0 "/></g></g></g><g fill="#000000" fill-opacity="1"><g transform="translate(294.910595, 213.749986)"><g><path d="M 4.640625 -0.765625 L 4.515625 -0.765625 C 4.359375 -0.460938 4.140625 -0.234375 3.859375 -0.078125 C 3.585938 0.0664062 3.285156 0.140625 2.953125 0.140625 C 2.617188 0.140625 2.304688 0.0820312 2.015625 -0.03125 C 1.722656 -0.144531 1.460938 -0.304688 1.234375 -0.515625 C 1.015625 -0.734375 0.835938 -1 0.703125 -1.3125 C 0.578125 -1.632812 0.515625 -2 0.515625 -2.40625 L 0.515625 -2.5625 C 0.515625 -2.957031 0.582031 -3.3125 0.71875 -3.625 C 0.851562 -3.945312 1.03125 -4.21875 1.25 -4.4375 C 1.46875 -4.65625 1.722656 -4.816406 2.015625 -4.921875 C 2.304688 -5.035156 2.613281 -5.09375 2.9375 -5.09375 C 3.300781 -5.09375 3.617188 -5.015625 3.890625 -4.859375 C 4.160156 -4.703125 4.367188 -4.476562 4.515625 -4.1875 L 4.640625 -4.1875 L 4.640625 -4.953125 L 5.421875 -4.953125 L 5.421875 1.21875 C 5.421875 1.445312 5.347656 1.632812 5.203125 1.78125 C 5.054688 1.925781 4.875 2 4.65625 2 L 1.421875 2 L 1.421875 1.28125 L 4.375 1.28125 C 4.550781 1.28125 4.640625 1.179688 4.640625 0.984375 Z M 2.984375 -0.59375 C 3.210938 -0.59375 3.425781 -0.632812 3.625 -0.71875 C 3.832031 -0.8125 4.007812 -0.9375 4.15625 -1.09375 C 4.300781 -1.257812 4.414062 -1.453125 4.5 -1.671875 C 4.59375 -1.898438 4.640625 -2.148438 4.640625 -2.421875 L 4.640625 -2.546875 C 4.640625 -2.804688 4.59375 -3.046875 4.5 -3.265625 C 4.414062 -3.492188 4.300781 -3.6875 4.15625 -3.84375 C 4.007812 -4.007812 3.832031 -4.132812 3.625 -4.21875 C 3.414062 -4.3125 3.203125 -4.359375 2.984375 -4.359375 C 2.742188 -4.359375 2.519531 -4.3125 2.3125 -4.21875 C 2.113281 -4.132812 1.9375 -4.015625 1.78125 -3.859375 C 1.632812 -3.703125 1.519531 -3.507812 1.4375 -3.28125 C 1.351562 -3.0625 1.3125 -2.820312 1.3125 -2.5625 L 1.3125 -2.40625 C 1.3125 -2.125 1.351562 -1.867188 1.4375 -1.640625 C 1.519531 -1.421875 1.632812 -1.234375 1.78125 -1.078125 C 1.9375 -0.921875 2.113281 -0.800781 2.3125 -0.71875 C 2.519531 -0.632812 2.742188 -0.59375 2.984375 -0.59375 Z M 2.984375 -0.59375 "/></g></g></g><g fill="#000000" fill-opacity="1"><g transform="translate(301.028183, 213.749986)"><g/></g></g><g fill="#000000" fill-opacity="1"><g transform="translate(307.145771, 213.749986)"><g><path d="M 4.703125 -4.984375 C 4.703125 -5.203125 4.65625 -5.398438 4.5625 -5.578125 C 4.476562 -5.753906 4.359375 -5.898438 4.203125 -6.015625 C 4.054688 -6.128906 3.878906 -6.210938 3.671875 -6.265625 C 3.472656 -6.328125 3.265625 -6.359375 3.046875 -6.359375 C 2.859375 -6.359375 2.675781 -6.332031 2.5 -6.28125 C 2.320312 -6.226562 2.164062 -6.15625 2.03125 -6.0625 C 1.894531 -5.976562 1.785156 -5.863281 1.703125 -5.71875 C 1.628906 -5.582031 1.59375 -5.425781 1.59375 -5.25 L 1.59375 -5.1875 C 1.59375 -5 1.628906 -4.832031 1.703125 -4.6875 C 1.785156 -4.550781 1.90625 -4.4375 2.0625 -4.34375 C 2.21875 -4.25 2.410156 -4.171875 2.640625 -4.109375 C 2.878906 -4.046875 3.15625 -3.988281 3.46875 -3.9375 C 4.195312 -3.820312 4.734375 -3.601562 5.078125 -3.28125 C 5.429688 -2.96875 5.609375 -2.546875 5.609375 -2.015625 L 5.609375 -1.90625 C 5.609375 -1.601562 5.554688 -1.328125 5.453125 -1.078125 C 5.347656 -0.828125 5.191406 -0.609375 4.984375 -0.421875 C 4.785156 -0.242188 4.535156 -0.101562 4.234375 0 C 3.941406 0.09375 3.597656 0.140625 3.203125 0.140625 C 2.753906 0.140625 2.359375 0.078125 2.015625 -0.046875 C 1.671875 -0.179688 1.382812 -0.363281 1.15625 -0.59375 C 0.925781 -0.820312 0.75 -1.09375 0.625 -1.40625 C 0.507812 -1.71875 0.453125 -2.054688 0.453125 -2.421875 L 0.453125 -2.71875 L 1.296875 -2.71875 L 1.296875 -2.484375 C 1.296875 -1.867188 1.460938 -1.40625 1.796875 -1.09375 C 2.128906 -0.789062 2.597656 -0.640625 3.203125 -0.640625 C 3.722656 -0.640625 4.113281 -0.753906 4.375 -0.984375 C 4.632812 -1.210938 4.765625 -1.519531 4.765625 -1.90625 L 4.765625 -1.953125 C 4.765625 -2.328125 4.628906 -2.609375 4.359375 -2.796875 C 4.085938 -2.992188 3.648438 -3.132812 3.046875 -3.21875 C 2.691406 -3.269531 2.375 -3.34375 2.09375 -3.4375 C 1.8125 -3.53125 1.566406 -3.65625 1.359375 -3.8125 C 1.160156 -3.96875 1.007812 -4.15625 0.90625 -4.375 C 0.800781 -4.59375 0.75 -4.851562 0.75 -5.15625 L 0.75 -5.28125 C 0.75 -5.550781 0.804688 -5.800781 0.921875 -6.03125 C 1.035156 -6.257812 1.191406 -6.457031 1.390625 -6.625 C 1.597656 -6.789062 1.84375 -6.914062 2.125 -7 C 2.40625 -7.09375 2.71875 -7.140625 3.0625 -7.140625 C 3.457031 -7.140625 3.804688 -7.082031 4.109375 -6.96875 C 4.421875 -6.851562 4.679688 -6.703125 4.890625 -6.515625 C 5.109375 -6.328125 5.269531 -6.101562 5.375 -5.84375 C 5.488281 -5.582031 5.546875 -5.316406 5.546875 -5.046875 L 5.546875 -4.625 L 4.703125 -4.625 Z M 4.703125 -4.984375 "/></g></g></g><g fill="#000000" fill-opacity="1"><g transform="translate(313.263358, 213.749986)"><g><path d="M 1.4375 -2.234375 C 1.457031 -1.742188 1.609375 -1.347656 1.890625 -1.046875 C 2.179688 -0.742188 2.582031 -0.59375 3.09375 -0.59375 C 3.332031 -0.59375 3.535156 -0.617188 3.703125 -0.671875 C 3.878906 -0.734375 4.03125 -0.8125 4.15625 -0.90625 C 4.28125 -1 4.378906 -1.101562 4.453125 -1.21875 C 4.523438 -1.34375 4.585938 -1.476562 4.640625 -1.625 L 5.375 -1.421875 C 5.238281 -0.960938 4.984375 -0.585938 4.609375 -0.296875 C 4.234375 -0.00390625 3.722656 0.140625 3.078125 0.140625 C 2.722656 0.140625 2.394531 0.078125 2.09375 -0.046875 C 1.800781 -0.171875 1.546875 -0.34375 1.328125 -0.5625 C 1.117188 -0.789062 0.953125 -1.0625 0.828125 -1.375 C 0.710938 -1.6875 0.65625 -2.035156 0.65625 -2.421875 L 0.65625 -2.65625 C 0.65625 -3.007812 0.71875 -3.332031 0.84375 -3.625 C 0.96875 -3.925781 1.140625 -4.1875 1.359375 -4.40625 C 1.578125 -4.625 1.832031 -4.789062 2.125 -4.90625 C 2.425781 -5.03125 2.75 -5.09375 3.09375 -5.09375 C 3.5 -5.09375 3.847656 -5.019531 4.140625 -4.875 C 4.441406 -4.726562 4.6875 -4.539062 4.875 -4.3125 C 5.070312 -4.09375 5.210938 -3.851562 5.296875 -3.59375 C 5.390625 -3.332031 5.4375 -3.09375 5.4375 -2.875 L 5.4375 -2.234375 Z M 3.09375 -4.359375 C 2.875 -4.359375 2.671875 -4.320312 2.484375 -4.25 C 2.296875 -4.1875 2.128906 -4.085938 1.984375 -3.953125 C 1.835938 -3.828125 1.71875 -3.679688 1.625 -3.515625 C 1.539062 -3.347656 1.484375 -3.160156 1.453125 -2.953125 L 4.65625 -2.953125 C 4.644531 -3.171875 4.59375 -3.363281 4.5 -3.53125 C 4.414062 -3.707031 4.300781 -3.851562 4.15625 -3.96875 C 4.007812 -4.09375 3.84375 -4.1875 3.65625 -4.25 C 3.476562 -4.320312 3.289062 -4.359375 3.09375 -4.359375 Z M 3.09375 -4.359375 "/></g></g></g><g fill="#000000" fill-opacity="1"><g transform="translate(319.380946, 213.749986)"><g><path d="M 0.59375 -4.953125 L 2.390625 -4.953125 L 2.390625 -4.296875 L 2.515625 -4.296875 C 2.640625 -4.566406 2.816406 -4.765625 3.046875 -4.890625 C 3.285156 -5.023438 3.550781 -5.09375 3.84375 -5.09375 C 4.34375 -5.09375 4.742188 -4.929688 5.046875 -4.609375 C 5.359375 -4.285156 5.523438 -3.8125 5.546875 -3.1875 L 4.734375 -3.0625 C 4.734375 -3.519531 4.617188 -3.847656 4.390625 -4.046875 C 4.171875 -4.253906 3.90625 -4.359375 3.59375 -4.359375 C 3.382812 -4.359375 3.203125 -4.316406 3.046875 -4.234375 C 2.898438 -4.160156 2.773438 -4.050781 2.671875 -3.90625 C 2.578125 -3.769531 2.503906 -3.609375 2.453125 -3.421875 C 2.410156 -3.234375 2.390625 -3.03125 2.390625 -2.8125 L 2.390625 -0.71875 L 3.65625 -0.71875 L 3.65625 0 L 0.46875 0 L 0.46875 -0.71875 L 1.609375 -0.71875 L 1.609375 -4.234375 L 0.59375 -4.234375 Z M 0.59375 -4.953125 "/></g></g></g><g fill="#000000" fill-opacity="1"><g transform="translate(325.498534, 213.749986)"><g><path d="M 3.8125 0 L 2.28125 0 L 0.546875 -4.953125 L 1.46875 -4.953125 L 2.984375 -0.359375 L 3.109375 -0.359375 L 4.625 -4.953125 L 5.546875 -4.953125 Z M 3.8125 0 "/></g></g></g><g fill="#000000" fill-opacity="1"><g transform="translate(331.616121, 213.749986)"><g><path d="M 2.40625 -6.4375 C 2.40625 -6.632812 2.472656 -6.800781 2.609375 -6.9375 C 2.742188 -7.070312 2.910156 -7.140625 3.109375 -7.140625 C 3.304688 -7.140625 3.472656 -7.070312 3.609375 -6.9375 C 3.742188 -6.800781 3.8125 -6.632812 3.8125 -6.4375 C 3.8125 -6.25 3.742188 -6.082031 3.609375 -5.9375 C 3.472656 -5.800781 3.304688 -5.734375 3.109375 -5.734375 C 2.910156 -5.734375 2.742188 -5.800781 2.609375 -5.9375 C 2.472656 -6.082031 2.40625 -6.25 2.40625 -6.4375 Z M 0.984375 -0.71875 L 2.734375 -0.71875 L 2.734375 -4.234375 L 1.171875 -4.234375 L 1.171875 -4.953125 L 3.515625 -4.953125 L 3.515625 -0.71875 L 5.125 -0.71875 L 5.125 0 L 0.984375 0 Z M 0.984375 -0.71875 "/></g></g></g><g fill="#000000" fill-opacity="1"><g transform="translate(337.733709, 213.749986)"><g><path d="M 5.515625 -1.765625 C 5.460938 -1.484375 5.367188 -1.226562 5.234375 -1 C 5.109375 -0.769531 4.941406 -0.566406 4.734375 -0.390625 C 4.535156 -0.222656 4.300781 -0.09375 4.03125 0 C 3.769531 0.09375 3.476562 0.140625 3.15625 0.140625 C 2.800781 0.140625 2.46875 0.0820312 2.15625 -0.03125 C 1.851562 -0.144531 1.582031 -0.304688 1.34375 -0.515625 C 1.113281 -0.734375 0.929688 -1 0.796875 -1.3125 C 0.660156 -1.632812 0.59375 -2 0.59375 -2.40625 L 0.59375 -2.515625 C 0.59375 -2.921875 0.660156 -3.28125 0.796875 -3.59375 C 0.929688 -3.914062 1.113281 -4.1875 1.34375 -4.40625 C 1.582031 -4.625 1.851562 -4.789062 2.15625 -4.90625 C 2.46875 -5.03125 2.800781 -5.09375 3.15625 -5.09375 C 3.46875 -5.09375 3.753906 -5.046875 4.015625 -4.953125 C 4.285156 -4.859375 4.519531 -4.726562 4.71875 -4.5625 C 4.925781 -4.394531 5.09375 -4.191406 5.21875 -3.953125 C 5.351562 -3.722656 5.441406 -3.472656 5.484375 -3.203125 L 4.703125 -3.015625 C 4.691406 -3.191406 4.644531 -3.359375 4.5625 -3.515625 C 4.488281 -3.679688 4.382812 -3.828125 4.25 -3.953125 C 4.125 -4.078125 3.96875 -4.175781 3.78125 -4.25 C 3.59375 -4.320312 3.375 -4.359375 3.125 -4.359375 C 2.882812 -4.359375 2.660156 -4.3125 2.453125 -4.21875 C 2.242188 -4.132812 2.054688 -4.007812 1.890625 -3.84375 C 1.734375 -3.675781 1.609375 -3.476562 1.515625 -3.25 C 1.429688 -3.03125 1.390625 -2.785156 1.390625 -2.515625 L 1.390625 -2.40625 C 1.390625 -2.125 1.429688 -1.867188 1.515625 -1.640625 C 1.609375 -1.421875 1.734375 -1.234375 1.890625 -1.078125 C 2.054688 -0.921875 2.242188 -0.800781 2.453125 -0.71875 C 2.671875 -0.632812 2.90625 -0.59375 3.15625 -0.59375 C 3.394531 -0.59375 3.601562 -0.628906 3.78125 -0.703125 C 3.96875 -0.785156 4.125 -0.890625 4.25 -1.015625 C 4.382812 -1.140625 4.488281 -1.28125 4.5625 -1.4375 C 4.644531 -1.601562 4.703125 -1.769531 4.734375 -1.9375 Z M 5.515625 -1.765625 "/></g></g></g><g fill="#000000" fill-opacity="1"><g transform="translate(343.851297, 213.749986)"><g><path d="M 1.4375 -2.234375 C 1.457031 -1.742188 1.609375 -1.347656 1.890625 -1.046875 C 2.179688 -0.742188 2.582031 -0.59375 3.09375 -0.59375 C 3.332031 -0.59375 3.535156 -0.617188 3.703125 -0.671875 C 3.878906 -0.734375 4.03125 -0.8125 4.15625 -0.90625 C 4.28125 -1 4.378906 -1.101562 4.453125 -1.21875 C 4.523438 -1.34375 4.585938 -1.476562 4.640625 -1.625 L 5.375 -1.421875 C 5.238281 -0.960938 4.984375 -0.585938 4.609375 -0.296875 C 4.234375 -0.00390625 3.722656 0.140625 3.078125 0.140625 C 2.722656 0.140625 2.394531 0.078125 2.09375 -0.046875 C 1.800781 -0.171875 1.546875 -0.34375 1.328125 -0.5625 C 1.117188 -0.789062 0.953125 -1.0625 0.828125 -1.375 C 0.710938 -1.6875 0.65625 -2.035156 0.65625 -2.421875 L 0.65625 -2.65625 C 0.65625 -3.007812 0.71875 -3.332031 0.84375 -3.625 C 0.96875 -3.925781 1.140625 -4.1875 1.359375 -4.40625 C 1.578125 -4.625 1.832031 -4.789062 2.125 -4.90625 C 2.425781 -5.03125 2.75 -5.09375 3.09375 -5.09375 C 3.5 -5.09375 3.847656 -5.019531 4.140625 -4.875 C 4.441406 -4.726562 4.6875 -4.539062 4.875 -4.3125 C 5.070312 -4.09375 5.210938 -3.851562 5.296875 -3.59375 C 5.390625 -3.332031 5.4375 -3.09375 5.4375 -2.875 L 5.4375 -2.234375 Z M 3.09375 -4.359375 C 2.875 -4.359375 2.671875 -4.320312 2.484375 -4.25 C 2.296875 -4.1875 2.128906 -4.085938 1.984375 -3.953125 C 1.835938 -3.828125 1.71875 -3.679688 1.625 -3.515625 C 1.539062 -3.347656 1.484375 -3.160156 1.453125 -2.953125 L 4.65625 -2.953125 C 4.644531 -3.171875 4.59375 -3.363281 4.5 -3.53125 C 4.414062 -3.707031 4.300781 -3.851562 4.15625 -3.96875 C 4.007812 -4.09375 3.84375 -4.1875 3.65625 -4.25 C 3.476562 -4.320312 3.289062 -4.359375 3.09375 -4.359375 Z M 3.09375 -4.359375 "/></g></g></g></svg>