<!DOCTYPE svg PUBLIC "-//W3C//DTD SVG 1.1//EN" "http://www.w3.org/Graphics/SVG/1.1/DTD/svg11.dtd">
<!-- Uploaded to: SVG Repo, www.svgrepo.com, Transformed by: SVG Repo Mixer Tools -->
<svg fill="#8bcad9" width="800px" height="800px" viewBox="0 0 48 48" enable-background="new 0 0 48 48" id="Layer_1" version="1.1" xml:space="preserve" xmlns="http://www.w3.org/2000/svg" xmlns:xlink="http://www.w3.org/1999/xlink">
<g id="SVGRepo_bgCarrier" stroke-width="0"/>
<g id="SVGRepo_iconCarrier">
<path d="M39.092,20.218c-1.368-0.565-2.83-0.8-4.038-0.889c-0.096-0.165-0.192-0.329-0.29-0.492 c-0.258-0.433-0.503-0.842-0.703-1.26c-1.98-4.134-4.973-5.889-9.139-5.354c-0.563,0.071-1.224-0.076-1.925-0.232 c-0.472-0.105-0.959-0.214-1.466-0.268c-3.204-0.34-5.437,0.635-6.837,2.978c-0.658,1.102-1.383,2.201-2.084,3.264 c-0.32,0.485-0.641,0.971-0.956,1.458c-0.005,0.008-0.005,0.019-0.011,0.027c-1.388,0.265-2.779,0.932-3.692,1.818 C6.486,22.69,5.845,24.361,6.096,26.1c0.322,2.235,2.1,4.313,5.002,5.866c0,0.001,0.001,0.003,0.002,0.005 c1.04,1.824,2.323,4.078,5.271,4.078c0.121,0,0.244-0.004,0.37-0.012c2.168-0.132,3.636-1.367,4.388-3.645l6.263-0.241 c0.03,0.063,0.061,0.12,0.091,0.184c0.264,0.562,0.562,1.198,1.076,1.714c1.037,1.043,2.214,1.586,3.423,1.586 c0.119,0,0.239-0.005,0.358-0.016c1.711-0.151,3.36-1.343,4.903-3.53c2.172-0.258,4.573-1.068,5.026-4.447 C42.769,23.91,41.641,21.273,39.092,20.218z M16.411,15.727c0.999-1.671,2.466-2.271,4.908-2.015 c0.394,0.042,0.806,0.134,1.243,0.231c0.838,0.188,1.708,0.381,2.614,0.264c3.289-0.42,5.477,0.886,7.081,4.236 c0.138,0.286,0.288,0.559,0.441,0.826c-5.654-0.065-12.104-0.101-18.57,0.026c0.05-0.076,0.1-0.153,0.15-0.229 C14.992,17.985,15.73,16.867,16.411,15.727z M16.619,34.041c-1.738,0.111-2.541-0.925-3.575-2.703 c1.203-2.837,2.312-2.756,3.622-2.342c1.47,0.462,2.29,1.252,2.646,2.553C18.831,33.207,18.02,33.955,16.619,34.041z M32.164,33.627 c-0.74,0.066-1.471-0.268-2.188-0.988c-0.269-0.27-0.479-0.719-0.682-1.152c-0.037-0.079-0.074-0.158-0.111-0.235 c0.866-1.669,2.208-2.405,4.464-2.458l1.728,2.474C34.279,32.724,33.175,33.537,32.164,33.627z M40.287,27.376 c-0.234,1.751-1.088,2.459-3.289,2.723l-2.01-2.88c-0.184-0.262-0.481-0.42-0.802-0.427c-3.23-0.052-5.365,1.021-6.662,3.354 l-6.492,0.25c-0.629-1.623-1.868-2.71-3.767-3.308c-3.15-0.99-4.761,0.759-5.762,2.808c-1.979-1.181-3.222-2.642-3.429-4.081 c-0.158-1.094,0.27-2.141,1.269-3.112c0.795-0.772,2.247-1.353,3.453-1.381c7.388-0.173,14.852-0.116,21.18-0.038 c1.656,0.021,3.161,0.291,4.352,0.782C40.418,22.932,40.547,25.432,40.287,27.376z"/>
</g>
</svg>